<?xml version="1.0" encoding="utf-8"?>
<!-- Generator: Adobe Illustrator 16.0.4, SVG Export Plug-In . SVG Version: 6.00 Build 0)  -->
<!DOCTYPE svg PUBLIC "-//W3C//DTD SVG 1.1//EN" "http://www.w3.org/Graphics/SVG/1.1/DTD/svg11.dtd">
<svg version="1.1" xmlns="http://www.w3.org/2000/svg" xmlns:xlink="http://www.w3.org/1999/xlink" x="0px" y="0px" width="700px"
	 height="500px" viewBox="0 0 700 500" enable-background="new 0 0 700 500" xml:space="preserve">
<g id="Layer_4" display="none">
	<rect display="inline" fill="none" stroke="#000000" stroke-miterlimit="10" width="700" height="500"/>
</g>
<g id="fb-text">
	<g>
		<path fill="#808080" d="M3.479,492.76c0.855,0,1.585,0.303,2.189,0.906c0.604,0.604,0.905,1.342,0.905,2.213
			c0,0.856-0.302,1.59-0.905,2.202C5.064,498.693,4.335,499,3.479,499c-0.856,0-1.584-0.307-2.188-0.919s-0.906-1.346-0.906-2.202
			c0-0.871,0.302-1.609,0.906-2.213S2.624,492.76,3.479,492.76z"/>
		<path fill="#808080" d="M37.25,460.355v3.447c-1.292-0.555-2.399-0.831-3.321-0.831c-0.688,0-1.259,0.139-1.711,0.416
			c-0.453,0.276-0.739,0.594-0.855,0.956c-0.119,0.361-0.177,1.319-0.177,2.881l-0.003,3.698h5.714v3.043h-5.717l-0.019,24.328
			h-3.523v-24.328h-3.597v-3.043h3.597v-4.277c0-1.964,0.18-3.363,0.541-4.203c0.36-0.838,0.972-1.511,1.837-2.024
			c0.863-0.511,1.907-0.768,3.132-0.768C34.29,459.65,35.656,459.886,37.25,460.355z"/>
		<path fill="#808080" d="M52.931,470.923h3.598v4c1.073-1.576,2.205-2.756,3.396-3.536c1.19-0.779,2.432-1.17,3.724-1.17
			c0.972,0,2.013,0.312,3.12,0.933l-1.837,2.968c-0.738-0.317-1.358-0.479-1.861-0.479c-1.174,0-2.307,0.483-3.396,1.446
			c-1.091,0.966-1.921,2.463-2.491,4.491c-0.437,1.561-0.654,4.715-0.654,9.46v9.258h-3.598V470.923z"/>
		<path fill="#808080" d="M109.143,470.923v27.371h-3.472v-4.703c-1.477,1.795-3.133,3.145-4.969,4.05
			c-1.836,0.905-3.845,1.359-6.025,1.359c-3.875,0-7.183-1.406-9.925-4.214c-2.743-2.81-4.113-6.228-4.113-10.254
			c0-3.939,1.384-7.312,4.152-10.113c2.767-2.801,6.096-4.202,9.987-4.202c2.248,0,4.281,0.478,6.101,1.436
			c1.821,0.955,3.417,2.39,4.793,4.302v-5.031H109.143z M95.067,473.614c-1.96,0-3.77,0.483-5.429,1.445
			c-1.659,0.963-2.978,2.316-3.958,4.059c-0.98,1.743-1.47,3.586-1.47,5.528c0,1.928,0.494,3.771,1.482,5.528
			c0.989,1.76,2.316,3.129,3.983,4.109c1.667,0.979,3.455,1.469,5.366,1.469c1.927,0,3.752-0.485,5.478-1.456
			c1.726-0.972,3.053-2.288,3.983-3.947c0.93-1.657,1.394-3.525,1.394-5.603c0-3.166-1.042-5.812-3.128-7.94
			C100.683,474.679,98.115,473.614,95.067,473.614z"/>
		<path fill="#808080" d="M129.176,470.923h3.522v4.905c1.409-1.879,2.969-3.282,4.68-4.214s3.573-1.397,5.585-1.397
			c2.046,0,3.861,0.521,5.447,1.562c1.585,1.04,2.755,2.439,3.51,4.202c0.755,1.759,1.133,4.501,1.133,8.227v14.087h-3.523v-13.056
			c0-3.154-0.131-5.259-0.391-6.314c-0.409-1.813-1.191-3.176-2.349-4.089c-1.157-0.914-2.667-1.371-4.529-1.371
			c-2.131,0-4.039,0.705-5.725,2.114c-1.686,1.407-2.797,3.152-3.333,5.232c-0.335,1.357-0.503,3.84-0.503,7.447v10.036h-3.522
			V470.923z"/>
		<path fill="#808080" d="M199.276,476.608l-2.792,1.735c-2.413-3.204-5.705-4.805-9.876-4.805c-3.334,0-6.102,1.072-8.305,3.217
			c-2.203,2.144-3.304,4.749-3.304,7.815c0,1.994,0.507,3.87,1.521,5.628c1.013,1.76,2.404,3.126,4.171,4.098
			c1.768,0.971,3.749,1.456,5.943,1.456c4.02,0,7.303-1.601,9.851-4.805l2.792,1.837c-1.308,1.972-3.065,3.499-5.27,4.586
			c-2.207,1.085-4.717,1.629-7.536,1.629c-4.327,0-7.917-1.375-10.768-4.126c-2.852-2.751-4.277-6.098-4.277-10.038
			c0-2.651,0.667-5.113,2-7.386c1.333-2.271,3.165-4.045,5.497-5.32c2.331-1.273,4.939-1.913,7.824-1.913
			c1.811,0,3.56,0.276,5.247,0.831c1.685,0.554,3.114,1.274,4.289,2.164C197.456,474.102,198.454,475.234,199.276,476.608z"/>
		<path fill="#808080" d="M219.373,459.65c0.801,0,1.486,0.286,2.054,0.856s0.852,1.258,0.852,2.063
			c0,0.789-0.284,1.467-0.852,2.037s-1.252,0.854-2.054,0.854c-0.785,0-1.462-0.284-2.029-0.854
			c-0.568-0.57-0.853-1.248-0.853-2.037c0-0.806,0.285-1.493,0.853-2.063C217.911,459.937,218.588,459.65,219.373,459.65z
			 M217.624,470.923h3.522v27.371h-3.522V470.923z"/>
		<path fill="#808080" d="M254.338,473.915l-2.265,2.341c-1.883-1.827-3.725-2.742-5.524-2.742c-1.144,0-2.123,0.377-2.938,1.132
			s-1.223,1.636-1.223,2.644c0,0.888,0.335,1.735,1.008,2.54c0.673,0.822,2.084,1.786,4.235,2.894
			c2.623,1.357,4.404,2.665,5.345,3.925c0.925,1.273,1.387,2.709,1.387,4.301c0,2.249-0.79,4.152-2.368,5.711
			c-1.579,1.561-3.554,2.341-5.921,2.341c-1.58,0-3.088-0.344-4.523-1.032c-1.436-0.688-2.625-1.635-3.566-2.843l2.214-2.517
			c1.8,2.031,3.707,3.045,5.725,3.045c1.413,0,2.614-0.453,3.606-1.357c0.992-0.905,1.488-1.971,1.488-3.197
			c0-1.005-0.328-1.902-0.984-2.691c-0.655-0.771-2.135-1.744-4.437-2.919c-2.471-1.273-4.152-2.532-5.043-3.772
			c-0.891-1.242-1.336-2.657-1.336-4.253c0-2.079,0.71-3.807,2.13-5.183c1.42-1.374,3.212-2.063,5.381-2.063
			C249.247,470.217,251.785,471.45,254.338,473.915z"/>
		<path fill="#808080" d="M299.253,476.608l-2.792,1.735c-2.413-3.204-5.705-4.805-9.876-4.805c-3.334,0-6.102,1.072-8.305,3.217
			c-2.204,2.144-3.305,4.749-3.305,7.815c0,1.994,0.507,3.87,1.52,5.628c1.014,1.76,2.404,3.126,4.171,4.098
			c1.768,0.971,3.749,1.456,5.943,1.456c4.02,0,7.304-1.601,9.851-4.805l2.792,1.837c-1.308,1.972-3.065,3.499-5.27,4.586
			c-2.206,1.085-4.717,1.629-7.536,1.629c-4.327,0-7.917-1.375-10.768-4.126c-2.852-2.751-4.277-6.098-4.277-10.038
			c0-2.651,0.667-5.113,2-7.386c1.333-2.271,3.165-4.045,5.498-5.32c2.331-1.273,4.938-1.913,7.824-1.913
			c1.811,0,3.56,0.276,5.247,0.831c1.685,0.554,3.114,1.274,4.289,2.164C297.433,474.102,298.431,475.234,299.253,476.608z"/>
		<path fill="#808080" d="M331.086,470.217c4.217,0,7.712,1.528,10.485,4.579c2.52,2.785,3.78,6.081,3.78,9.889
			c0,3.823-1.332,7.165-3.995,10.025c-2.663,2.86-6.087,4.29-10.271,4.29c-4.2,0-7.632-1.43-10.295-4.29
			c-2.664-2.86-3.995-6.202-3.995-10.025c0-3.791,1.26-7.079,3.78-9.863C323.349,471.753,326.853,470.217,331.086,470.217z
			 M331.074,473.665c-2.929,0-5.445,1.081-7.55,3.245c-2.104,2.164-3.156,4.78-3.156,7.85c0,1.98,0.48,3.824,1.439,5.534
			c0.959,1.711,2.256,3.032,3.889,3.963c1.633,0.932,3.425,1.396,5.378,1.396c1.952,0,3.744-0.465,5.377-1.396
			c1.633-0.931,2.929-2.252,3.889-3.963c0.958-1.71,1.438-3.554,1.438-5.534c0-3.069-1.055-5.686-3.168-7.85
			C336.498,474.746,333.985,473.665,331.074,473.665z"/>
		<path fill="#808080" d="M390.577,498.294v-37.938h3.523v15.27c1.473-1.811,3.123-3.163,4.949-4.062
			c1.827-0.897,3.829-1.347,6.007-1.347c3.87,0,7.177,1.406,9.915,4.215c2.74,2.811,4.109,6.22,4.109,10.227
			c0,3.959-1.383,7.339-4.147,10.14c-2.764,2.801-6.09,4.202-9.977,4.202c-2.228,0-4.249-0.478-6.057-1.436
			c-1.811-0.954-3.41-2.389-4.8-4.302v5.031H390.577z M404.667,495.604c1.956,0,3.763-0.482,5.42-1.448
			c1.656-0.963,2.976-2.317,3.952-4.062c0.98-1.744,1.47-3.589,1.47-5.535s-0.493-3.8-1.48-5.56
			c-0.987-1.763-2.314-3.133-3.979-4.113c-1.666-0.982-3.442-1.474-5.334-1.474c-1.923,0-3.753,0.491-5.482,1.474
			c-1.733,0.98-3.064,2.302-3.992,3.96c-0.93,1.663-1.393,3.533-1.393,5.611c0,3.17,1.041,5.821,3.124,7.95
			C399.055,494.539,401.62,495.604,404.667,495.604z"/>
		<path fill="#808080" d="M460.651,489.212l2.969,1.562c-0.973,1.912-2.099,3.454-3.373,4.629c-1.278,1.173-2.713,2.066-4.308,2.679
			c-1.596,0.612-3.399,0.919-5.413,0.919c-4.467,0-7.957-1.465-10.476-4.391c-2.52-2.926-3.779-6.235-3.779-9.925
			c0-3.473,1.067-6.566,3.198-9.284c2.704-3.454,6.32-5.184,10.854-5.184c4.665,0,8.395,1.771,11.18,5.309
			c1.981,2.5,2.987,5.619,3.021,9.359h-24.63c0.067,3.181,1.082,5.787,3.047,7.819c1.965,2.033,4.392,3.049,7.28,3.049
			c1.395,0,2.751-0.241,4.067-0.726c1.319-0.483,2.439-1.129,3.364-1.929C458.578,492.296,459.576,491,460.651,489.212z
			 M460.651,481.841c-0.47-1.877-1.154-3.38-2.053-4.504c-0.897-1.123-2.088-2.028-3.564-2.718c-1.479-0.687-3.03-1.03-4.66-1.03
			c-2.688,0-4.996,0.864-6.927,2.592c-1.412,1.258-2.478,3.145-3.199,5.66H460.651z"/>
		<path fill="#808080" d="M483.201,470.923h3.521v4.905c1.409-1.879,2.969-3.282,4.68-4.214s3.572-1.397,5.586-1.397
			c2.046,0,3.86,0.521,5.446,1.562c1.585,1.04,2.756,2.439,3.509,4.202c0.756,1.759,1.134,4.501,1.134,8.227v14.087h-3.521v-13.056
			c0-3.154-0.134-5.259-0.395-6.314c-0.407-1.813-1.191-3.176-2.348-4.089c-1.158-0.914-2.667-1.371-4.53-1.371
			c-2.13,0-4.038,0.705-5.724,2.114c-1.687,1.407-2.798,3.152-3.334,5.232c-0.337,1.357-0.504,3.84-0.504,7.447v10.036h-3.521
			V470.923z"/>
		<path fill="#808080" d="M549.778,489.212l2.969,1.562c-0.974,1.912-2.099,3.454-3.375,4.629c-1.275,1.173-2.711,2.066-4.305,2.679
			c-1.596,0.612-3.4,0.919-5.413,0.919c-4.467,0-7.958-1.465-10.478-4.391c-2.519-2.926-3.777-6.235-3.777-9.925
			c0-3.473,1.066-6.566,3.198-9.284c2.702-3.454,6.32-5.184,10.853-5.184c4.667,0,8.396,1.771,11.181,5.309
			c1.98,2.5,2.988,5.619,3.021,9.359h-24.63c0.067,3.181,1.083,5.787,3.047,7.819c1.966,2.033,4.393,3.049,7.28,3.049
			c1.395,0,2.751-0.241,4.068-0.726c1.318-0.483,2.438-1.129,3.363-1.929C547.704,492.296,548.703,491,549.778,489.212z
			 M549.778,481.841c-0.471-1.877-1.153-3.38-2.053-4.504c-0.899-1.123-2.087-2.028-3.563-2.718c-1.479-0.687-3.033-1.03-4.661-1.03
			c-2.688,0-4.996,0.864-6.927,2.592c-1.411,1.258-2.478,3.145-3.198,5.66H549.778z"/>
		<path fill="#808080" d="M599.65,460.355v37.938h-3.471v-4.703c-1.477,1.795-3.133,3.145-4.97,4.05
			c-1.838,0.905-3.846,1.359-6.027,1.359c-3.873,0-7.183-1.406-9.924-4.214c-2.742-2.81-4.112-6.228-4.112-10.254
			c0-3.939,1.383-7.312,4.15-10.113s6.099-4.202,9.987-4.202c2.248,0,4.281,0.478,6.103,1.436c1.818,0.955,3.416,2.39,4.793,4.302
			v-15.599H599.65z M585.575,473.614c-1.962,0-3.771,0.483-5.429,1.445c-1.659,0.963-2.979,2.316-3.958,4.059
			c-0.981,1.743-1.472,3.586-1.472,5.528c0,1.928,0.494,3.771,1.484,5.528c0.987,1.76,2.316,3.129,3.982,4.109
			c1.665,0.979,3.456,1.469,5.365,1.469c1.927,0,3.752-0.485,5.479-1.456c1.726-0.972,3.053-2.288,3.983-3.947
			c0.929-1.657,1.396-3.525,1.396-5.603c0-3.166-1.043-5.812-3.13-7.94S588.623,473.614,585.575,473.614z"/>
		<path fill="#808080" d="M620.955,459.65c0.799,0,1.485,0.286,2.052,0.856c0.568,0.57,0.853,1.258,0.853,2.063
			c0,0.789-0.284,1.467-0.853,2.037c-0.566,0.57-1.253,0.854-2.052,0.854c-0.787,0-1.464-0.284-2.031-0.854
			s-0.851-1.248-0.851-2.037c0-0.806,0.283-1.493,0.851-2.063S620.168,459.65,620.955,459.65z M619.204,470.923h3.522v27.371h-3.522
			V470.923z"/>
		<path fill="#808080" d="M668.725,476.608l-2.79,1.735c-2.415-3.204-5.706-4.805-9.877-4.805c-3.334,0-6.104,1.072-8.307,3.217
			c-2.201,2.144-3.305,4.749-3.305,7.815c0,1.994,0.508,3.87,1.521,5.628c1.014,1.76,2.402,3.126,4.171,4.098
			c1.769,0.971,3.749,1.456,5.943,1.456c4.021,0,7.304-1.601,9.853-4.805l2.79,1.837c-1.309,1.972-3.064,3.499-5.27,4.586
			c-2.207,1.085-4.719,1.629-7.537,1.629c-4.326,0-7.914-1.375-10.768-4.126c-2.851-2.751-4.274-6.098-4.274-10.038
			c0-2.651,0.664-5.113,2-7.386c1.331-2.271,3.164-4.045,5.494-5.32c2.333-1.273,4.94-1.913,7.826-1.913
			c1.812,0,3.56,0.276,5.245,0.831c1.687,0.554,3.117,1.274,4.291,2.164S667.902,475.234,668.725,476.608z"/>
		<path fill="#808080" d="M690.67,460.758h3.521v10.165h5.586v3.043h-5.586v24.328h-3.521v-24.328h-4.806v-3.043h4.806V460.758z"/>
	</g>
</g>
<g id="cisco-silhouhette">
	<path id="part-circle_1_" fill="#808080" d="M174.681,304.746c2.063-0.738,3.912-1.205,5.23-1.172
		c5.715,0.146,27.985-12.953,28.279-13.836c0.293-0.885,29.304-8.688,46.593-17.52c17.291-8.836,17.145-6.627,21.539-12.811
		c4.396-6.184,15.381-16.625,24.177-33.712c1.097-2.129,8.331,1.311,10.382,1.016c0,0-0.494-12.863-0.055-14.851
		s-1.758-4.196,0.221-8.612c1.978-4.418,0.641-4.138,2.417-13.693c1.174-6.313-1.319-4.416,1.538-13.913l-0.439-5.961
		c0,0-2.088-1.877,0.329-4.638c2.088-0.772-1.333-4.739-1.099-8.943c0,0-2.582-2.153-0.385-2.982c0,0,1.045-4.195,0.275-5.631
		c-0.77-1.435-1.318-2.705-1.923-6.625c0,0-2.253-1.381-1.868-4.141s-1.868,1.049-1.594-3.532c0,0-2.967,1.048-3.571-1.546
		c0,0-7.857-0.773-4.836-4.803c0,0,4.726,0.386,4.012-2.981v-6.9c0,0-3.626-0.939,0.659-3.976c4.285-3.037,1.264-0.387,0.549-3.091
		c-0.713-2.706-3.021-2.706-2.361-4.086c0.658-1.38-5.77-0.275-1.869-5.63c0,0,4.342,2.595,3.901-0.718c0,0-1.868-3.313,0.056-4.085
		c0,0,2.967-1.767,0.988-6.515c-1.979-4.748,3.132,1.271,2.363-1.767c-0.77-3.036-2.583-2.484-1.264-5.41
		c0,0,2.252-3.147,1.044-3.975c-1.21-0.828-6.429,0.663-5.989-3.423c0,0-2.089-1.214,5.109-1.601
		c7.198-0.386,4.012-1.16,5.164,0.387c1.154,1.545,2.913,0.055,2.913-0.552c0-0.607-0.989-2.098,0.55-3.147
		c1.538-1.048-1.264-0.939-1.539-0.717c-0.275,0.221-4.256,1.731-4.285,1.049c-0.165-3.81,2.052-4.848,4.615-5.797
		c2.601-0.962,2.631,2.056,3.022-1.766c0.359-3.516-3.682,0.663-3.737-1.49c0,0-2.088-2.872-1.099-3.092
		c0.989-0.221,4.506,1.049,4.781,0.276c0.273-0.772,3.955-3.644,5.713-2.76c1.76,0.883,5.275-1.657,5.33-1.822
		c0.056-0.165,2.143-4.747-0.604-5.134c-2.747-0.387-4.229-1.492-4.229-1.492s-5.275-1.987,1.482-2.76c0,0,3.407,2.098,4.67,1.16
		c0,0,4.507,1.38,3.682-1.491c0,0,3.023-5.19,2.033-5.024c0,0-0.385-3.81,0.33-7.121c0.715-3.313,2.308-10.987,3.352-2.761
		c1.043,8.227,2.527-1.602,4.011-0.497c1.484,1.104,0.66-0.718,0.66-0.718v-1.38c0,0,0.769-2.32-0.88-2.761
		c-1.648-0.442,0.165-6.183,2.033-3.091c1.867,3.091,3.462-0.221,3.297-1.16c-0.164-0.938-0.329-8.336,2.857-3.091
		c3.188,5.245,1.812-0.498,1.812-0.498s2.912-2.429,3.792-0.055c0.88,2.374,2.087-4.609,5.274-1.311
		c3.187,3.298,1.318-2.223,6.045,0.207c4.724,2.429,1.923-0.884,3.9,0.772s2.197-2.98,4.229-0.22c2.034,2.76,1.76-4.141,2.254-5.355
		c0.495-1.215,3.132-8.999,7.858-5.852c4.724,3.147,4.396,1.104,5.054,4.748c0.659,3.644,4.616-2.208,5.057,0.883
		c0.438,3.091-3.244,6.073,0.824,5.355c4.066-0.718,4.066,0.828,3.898-1.215c-0.163-2.042-3.46-2.871,3.848-7.066
		c0,0,1.812,0.497,2.033-0.994c0.221-1.491-1.593-6.183,5.273-3.533c0,0,0.771,0.331,0.659,2.539
		c-0.107,2.209,2.034,0.553,2.034,0.553s-0.66,3.146,0.55,2.042c1.208-1.104,4.836-1.436,6.044,0.11s2.197,0.608,1.869,2.871
		c-0.33,2.264,0.987-2.152,3.846-0.994c2.856,1.159,3.736,4.141,3.571,4.307c-0.165,0.165,1.483,1.711,3.133,0.055
		c1.649-1.656,3.24,0.386,4.669,0.772c1.428,0.387,13.737-6.073,12.364,7.177c0,0-3.849-1.214-2.089,4.086
		c1.758,5.299,3.241-0.498,6.978,0.276c3.735,0.772-1.759,4.858,0.384,5.299c0,0,0.056,2.926,1.156,2.54
		c1.099-0.386,3.351,1.546,3.133-0.717c-0.221-2.264-0.388-4.196,2.196-3.313c2.582,0.883,3.736-1.27,4.45-1.6
		c0.715-0.332,3.242,0.883,3.242,0.883s3.132,0.055,0.769,4.14c-2.363,4.086,0.988,3.092,1.923,1.933s2.637-6.183,3.188-3.147
		c0.548,3.037-0.441,5.134-1.429,6.626c-0.989,1.49-0.329,4.14,1.429,2.981c1.758-1.16,5.935,4.195,6.098,5.079
		c0.167,0.883,5.221,4.25,4.452,5.299c-0.77,1.049-4.89,5.245-0.77,5.245c4.122,0,10.604,0.884,9.396,1.877
		c-1.209,0.994-4.122,7.011,2.308,6.459c6.429-0.552,7.803-0.111,5.549,2.429c-2.253,2.539-0.989,1.766-0.88,2.484
		c0.11,0.717,0.99,3.422-2.361,4.637c-3.353,1.214-7.638-1.932-6.759,0.607c0.88,2.54,2.197,5.797,3.681,5.742
		c1.483-0.056,11.593-0.607,11.375,1.545c-0.223,2.154-3.188,2.375-0.274,3.424c2.912,1.048-1.649,3.036-1.374,4.417
		c0.274,1.379-0.385,3.091-1.264,3.698c-0.881,0.608,1.922,5.631,2.089,5.743c0.163,0.109-4.727,1.103-2.748,1.545
		c1.976,0.442,1.208,2.319,2.363,2.319c1.153,0,3.733-0.939,3.515,1.159c-0.22,2.099,0.386,3.313,1.76,3.588
		c1.373,0.276,0.328,4.472-1.155,4.858c-1.483,0.387-2.307,2.706-1.483,3.367c0.824,0.663-0.494,2.706-1.758,3.369
		c-1.266,0.662-1.266,0.662-1.266,0.662s2.42,2.209,0.111,3.092s-6.045,4.969-1.703,8.944c4.341,3.974,5.659,4.527,1.539,6.237
		c-4.121,1.712-6.044,2.043-2.31,6.791c3.735,4.748-1.702-0.938-3.734,4.527c-2.034,5.465-4.341-0.056-3.792,2.098
		c-1.152,3.367-2.322,4.823,0.863,5.54c0,0,0.017,0.699-0.424,2.631c-0.439,1.932,0.825,2.594-1.759,4.416
		c-2.58,1.822-4.066,1.491-2.58,4.473c1.481,2.98,0.053,9.992-0.386,10.435c-0.439,0.441-2.803,4.636-1.814,6.569
		c0.988,1.931,0.055,8.115-1.593,8.612c-1.649,0.497-3.023,4.693-2.143,5.354c0.878,0.663,0.878,0.663,0.878,0.663
		c1.318,2.429-5.054,10.49-2.968,12.919c2.09,2.429-1.207,6.072-1.646,7.067c-0.44,0.992-1.1,3.753-1.649,3.859
		c-0.551,0.106-2.527,2.103-2.527,2.874c0,0.773-0.44,3.312-0.44,3.312c-1.647-0.219-7.143,8.503-7.143,8.503
		c1.758,7.507-4.286,10.601-4.067,14.244c0.222,3.645-6.592,13.914-6.592,13.914c0.658,4.084-6.703,10.268-6.703,10.268
		c0.293,3.389-11.137,14.869-11.137,14.869l0.036,2.297c0,0,0.569,3.371,1.509,6.127c0,0,1.257,9.465,3.3,12.592
		c1.3,1.994,8.955,7.537,8.955,7.537c1.924-0.195,3.297,0.938,3.297,0.938c3.354,3.727,14.534,11.676,14.534,11.676
		c5.961,0.387,6.236,2.568,6.236,2.568c5.55,1.711,10.385,11.4,10.385,11.4s4.863-2.652,14.974,13.027c0,0,6.154,4.416,9.45,9.938
		c0,0,4.928,6.213,9.406,17.375c-38.821,33.137-89.801,52.732-144.842,52.732C288.082,441.186,208.241,384.936,174.681,304.746z"/>
	<path id="left-collar_1_" fill="#FFFFFF" d="M302.395,384.701c0,0,0,3.533,13.919-8.686c0,0,26.668-22.818,29.159-26.795
		c2.49-3.975,9.858-10.342,14.505-12.955c0.578-0.326,4.249-3.387,11.722,4.859c7.473,8.242,15.238,3.533,15.238,3.533
		s-7.62-7.615-15.826-9.625c-8.202-2.006-16.263-10.984-16.263-10.984s-24.93-33.598-30.549-37.912
		c-8.061-6.184-22.419-19.727-24.177-45.492c0,0-1.344-9.238,0.653-11.898c0,0-8.152,15.976-20.492,29.255c0,0-4.727,6.51-6.479,7.9
		c-1.752,1.389-1.277,13.539-0.716,15.893c0,0,1.913,6.549,4.908,13.471c0,0,2.157,11.535,5.056,17.152
		c4.189,8.123,7.105,19.283,7.105,19.58c0,0.295,7.758,29.055,7.839,30.107C298.508,368.783,299.721,370.219,302.395,384.701z"/>
	<path id="right-collar_1_" fill="#FFFFFF" d="M459.933,397.977c0,0,6.723-25.561-5.44-46.465c0,0-1.577-23.213-6.694-30.518
		c-3.877-5.533-3.544-10.535-6.063-18.396c-0.626-1.951-0.864-5.08-0.864-5.08s-15.885,13.361-11.872,35.17
		c0,0,0.873,8.826-12.089,10.82c-10.77,1.656-11.704,5.574-11.704,5.574c12.143-1.332,28.271,9.662,31.43-7.398
		C436.635,341.684,462.131,356.092,459.933,397.977z"/>
</g>
<g id="fb-logo">
	<g>
		<circle fill="#808080" cx="157.35" cy="216.666" r="2.201"/>
		<path fill="#808080" d="M220.316,182.757h-11.007c-0.893,0-1.616-0.723-1.616-1.616c0-0.892,0.723-1.614,1.616-1.614h11.007
			c0.893,0,1.616,0.723,1.616,1.614C221.932,182.035,221.209,182.757,220.316,182.757z"/>
		<path fill="#808080" d="M192.658,182.757h-11.006c-0.893,0-1.617-0.723-1.617-1.616c0-0.892,0.724-1.614,1.617-1.614h11.006
			c0.893,0,1.616,0.723,1.616,1.614C194.273,182.035,193.55,182.757,192.658,182.757z"/>
		<path fill="#808080" d="M261.373,228.162c-13.404,0-24.31-10.906-24.31-24.311c0-2.061,0.258-4.107,0.768-6.082
			c4.155-15.575,15.41-57.799,15.41-57.799l0.02-0.068c1.979-6.304-0.747-13.279-6.484-16.583c-2.206-1.271-4.708-1.92-7.237-1.901
			c-0.006,0-0.012,0-0.018,0c-0.884,0-1.605-0.713-1.616-1.599c-0.009-0.892,0.708-1.624,1.6-1.633
			c3.103-0.039,6.178,0.775,8.884,2.333c7.029,4.049,10.375,12.588,7.965,20.317c-0.357,1.336-11.314,42.445-15.4,57.754
			c-0.437,1.698-0.661,3.472-0.661,5.261c0,11.623,9.457,21.079,21.079,21.079c11.625,0,21.08-9.456,21.08-21.079
			c0-7.152-3.581-13.758-9.579-17.67l-18.351-11.876c-0.747-0.484-0.962-1.485-0.478-2.234c0.486-0.749,1.485-0.964,2.235-0.479
			l18.354,11.879c6.921,4.514,11.052,12.132,11.052,20.381C285.686,217.255,274.778,228.162,261.373,228.162z"/>
		<path fill="#808080" d="M173.2,244.159c-9.63,0-17.465-7.833-17.465-17.464c0-0.893,0.722-1.616,1.615-1.616
			s1.616,0.723,1.616,1.616c0,7.848,6.386,14.232,14.234,14.232c6.62,0,12.464-4.682,13.896-11.132l0.017-0.069l17.102-63.832
			c1.771-7.899,8.934-13.63,17.043-13.63c3.404,0,6.707,0.981,9.545,2.837l9.546,6.18c0.749,0.483,0.963,1.485,0.479,2.233
			c-0.486,0.749-1.485,0.964-2.234,0.479l-9.552-6.183c-2.319-1.516-5.009-2.314-7.784-2.314c-6.62,0-12.464,4.682-13.896,11.132
			l-0.017,0.069l-17.101,63.832C188.472,238.43,181.311,244.159,173.2,244.159z"/>
	</g>
</g>
</svg>
